HIERARCHY
ROOT Hips
{
 OFFSET 0.000000 0.000000 0.000000
 CHANNELS 6 Xposition Yposition Zposition Yrotation Xrotation Zrotation
 JOINT Chest
 {
  OFFSET 0.000000 11.395451 -0.039534
  CHANNELS 3 Yrotation Xrotation Zrotation
  JOINT Chest2
  {
   OFFSET 0.000000 9.398669 0.071813
   CHANNELS 3 Yrotation Xrotation Zrotation
   JOINT Chest3
   {
    OFFSET 0.000000 8.489801 0.000000
    CHANNELS 3 Yrotation Xrotation Zrotation
    JOINT Chest4
    {
     OFFSET 0.000000 8.489801 0.000000
     CHANNELS 3 Yrotation Xrotation Zrotation
     JOINT Neck
     {
      OFFSET 0.000000 12.404889 0.000000
      CHANNELS 3 Yrotation Xrotation Zrotation
      JOINT Head
      {
       OFFSET 0.000000 8.903270 0.092239
       CHANNELS 3 Yrotation Xrotation Zrotation
       End Site
       {
        OFFSET 0.000000 17.592497 0.007158
       }
      }
     }
     JOINT RightCollar
     {
      OFFSET -3.196775 6.966722 0.000000
      CHANNELS 3 Yrotation Xrotation Zrotation
      JOINT RightShoulder
      {
       OFFSET -15.955896 0.000000 0.000000
       CHANNELS 3 Yrotation Xrotation Zrotation
       JOINT RightElbow
       {
        OFFSET -24.792472 0.000000 0.000000
        CHANNELS 3 Yrotation Xrotation Zrotation
        JOINT RightWrist
        {
         OFFSET -20.900115 0.000000 0.025002
         CHANNELS 3 Yrotation Xrotation Zrotation
         End Site
         {
          OFFSET -16.056692 0.000000 0.000000
         }
        }
       }
      }
     }
     JOINT LeftCollar
     {
      OFFSET 3.196775 6.966722 0.000000
      CHANNELS 3 Yrotation Xrotation Zrotation
      JOINT LeftShoulder
      {
       OFFSET 15.955896 0.000000 0.000000
       CHANNELS 3 Yrotation Xrotation Zrotation
       JOINT LeftElbow
       {
        OFFSET 24.792472 0.000000 0.000000
        CHANNELS 3 Yrotation Xrotation Zrotation
        JOINT LeftWrist
        {
         OFFSET 20.900115 0.000000 0.025002
         CHANNELS 3 Yrotation Xrotation Zrotation
         End Site
         {
          OFFSET 16.056692 0.000000 0.000000
         }
        }
       }
      }
     }
    }
   }
  }
 }
 JOINT RightHip
 {
  OFFSET -9.568995 0.193718 0.019767
  CHANNELS 3 Yrotation Xrotation Zrotation
  JOINT RightKnee
  {
   OFFSET 0.000000 -56.649296 0.015402
   CHANNELS 3 Yrotation Xrotation Zrotation
   JOINT RightAnkle
   {
    OFFSET 0.000000 -41.365147 0.021264
    CHANNELS 3 Yrotation Xrotation Zrotation
    JOINT RightToe
    {
     OFFSET 0.000000 -7.465940 17.672538
     CHANNELS 3 Yrotation Xrotation Zrotation
     End Site
     {
      OFFSET 0.000000 -1.736315 7.837145
     }
    }
   }
  }
 }
 JOINT LeftHip
 {
  OFFSET 9.568995 0.193718 0.019767
  CHANNELS 3 Yrotation Xrotation Zrotation
  JOINT LeftKnee
  {
   OFFSET 0.000000 -56.649296 0.015402
   CHANNELS 3 Yrotation Xrotation Zrotation
   JOINT LeftAnkle
   {
    OFFSET 0.000000 -41.365147 0.021264
    CHANNELS 3 Yrotation Xrotation Zrotation
    JOINT LeftToe
    {
     OFFSET 0.000000 -7.465940 17.672538
     CHANNELS 3 Yrotation Xrotation Zrotation
     End Site
     {
      OFFSET 0.000000 -1.736315 7.837145
     }
    }
   }
  }
 }
}
MOTION
Frames: 10
Frame Time: 0.016667
50.373154 106.817062 690.822978 27.307164 -8.162459 -0.572681 0.438356 5.587747 0.053482 0.193942 2.483493 0.018457 0.193942 2.483493 0.018457 0.145358 1.862626 0.013052 0.678690 12.611267 -0.568458 1.530022 -12.753302 -1.366214 -0.952352 3.323355 10.912240 13.264005 -7.020996 77.190178 1.419044 -7.661416 -2.106616 -2.075937 0.187562 1.529904 -4.667664 4.346175 -8.051155 2.801868 -9.947142 -77.564699 -2.448983 -0.959591 -3.666373 4.530842 -4.142166 -1.027912 1.845733 10.294489 1.847042 -1.958361 3.501612 -0.328491 -3.383720 -8.027041 -0.449323 -0.000000 -0.000000 0.000000 1.138977 10.004142 0.031188 -1.827397 5.939913 0.068235 -0.584662 -7.446010 1.091265 0.000896 -0.317243 -0.323782
50.350032 106.801428 690.760041 27.290600 -8.129847 -0.504761 0.433502 5.527839 0.021971 0.192175 2.456836 0.004585 0.192174 2.456836 0.004586 0.144090 1.842629 0.002666 0.668822 12.642431 -0.566804 1.509952 -12.695647 -1.358340 -0.898302 3.398828 10.849072 13.207692 -7.139888 77.307178 1.388395 -7.656635 -2.122792 -2.140590 0.187848 1.487874 -4.586182 4.438794 -8.075338 2.725599 -9.825152 -77.453395 -2.483398 -0.960627 -3.672306 4.476571 -4.130621 -1.099100 1.959794 10.209039 1.768327 -2.223806 3.567494 -0.380477 -3.273665 -8.072392 -0.361663 -0.000000 0.000000 -0.000000 1.234576 9.917796 -0.029382 -2.067688 6.009163 -0.004583 -0.456761 -7.520578 1.137597 0.000429 -0.199769 -0.203839
50.326910 106.785795 690.697103 27.274077 -8.097216 -0.436855 0.428735 5.467917 -0.009513 0.190438 2.430176 -0.009279 0.190437 2.430175 -0.009279 0.142844 1.822629 -0.007716 0.658945 12.673595 -0.565182 1.489892 -12.637987 -1.350539 -0.844216 3.474343 10.786052 13.150986 -7.258702 77.424236 1.357753 -7.651857 -2.138980 -2.205221 0.188094 1.445810 -4.504690 4.531451 -8.099271 2.649594 -9.703115 -77.342175 -2.517815 -0.961708 -3.678219 4.422237 -4.119145 -1.170260 2.073995 10.123872 1.689416 -2.489258 3.633366 -0.432887 -3.163724 -8.117825 -0.273977 0.000000 0.000000 0.000000 1.330303 9.831656 -0.090117 -2.308031 6.078251 -0.077819 -0.328994 -7.595277 1.183935 0.000121 -0.082267 -0.083924
50.305946 106.773085 690.637929 27.263792 -8.073595 -0.379392 0.419816 5.414067 -0.035026 0.186780 2.406220 -0.020452 0.186780 2.406220 -0.020452 0.140145 1.804659 -0.016073 0.649749 12.703579 -0.564693 1.471632 -12.582485 -1.345212 -0.790625 3.547948 10.723232 13.099984 -7.369556 77.532833 1.328363 -7.646172 -2.155737 -2.265726 0.188196 1.406620 -4.425726 4.621094 -8.127521 2.579230 -9.591143 -77.238392 -2.548011 -0.955177 -3.680676 4.371068 -4.107361 -1.236676 2.169516 10.048564 1.626206 -2.727885 3.695346 -0.477687 -3.066126 -8.157328 -0.200688 0.000000 -0.000000 0.000000 1.403735 9.756361 -0.139821 -2.515927 6.140717 -0.141068 -0.210178 -7.656691 1.221446 0.000000 0.000000 0.000000
50.288799 106.764932 690.584358 27.264707 -8.064512 -0.337875 0.403011 5.369576 -0.050944 0.179504 2.386434 -0.027284 0.179504 2.386434 -0.027284 0.134715 1.789818 -0.021161 0.641761 12.731655 -0.566851 1.456813 -12.530455 -1.345467 -0.736980 3.618482 10.659389 13.061590 -7.467894 77.629569 1.300830 -7.640623 -2.175771 -2.319934 0.188551 1.371354 -4.349091 4.706152 -8.164317 2.518477 -9.493395 -77.145014 -2.571732 -0.933600 -3.677517 4.323597 -4.095135 -1.295341 2.234515 9.988624 1.588387 -2.925139 3.751206 -0.510688 -2.988577 -8.188184 -0.151587 0.000000 -0.000000 0.000000 1.437288 9.698305 -0.172571 -2.671284 6.192031 -0.188700 -0.103189 -7.697183 1.244578 -0.000027 0.023507 0.023976
50.273810 106.759703 690.534551 27.271820 -8.064462 -0.306785 0.381998 5.331156 -0.060905 0.170288 2.369352 -0.031432 0.170288 2.369352 -0.031432 0.127820 1.777006 -0.024231 0.634451 12.758545 -0.570139 1.443780 -12.480594 -1.348181 -0.683859 3.687100 10.595702 13.029068 -7.558320 77.717817 1.274546 -7.634160 -2.196367 -2.370027 0.188784 1.338980 -4.275011 4.788216 -8.205513 2.463265 -9.405718 -77.059038 -2.591253 -0.904393 -3.670883 4.279273 -4.082575 -1.349242 2.280736 9.938310 1.566423 -3.095582 3.803130 -0.535905 -2.923280 -8.213019 -0.116889 0.000000 0.000000 0.000000 1.448458 9.650902 -0.194139 -2.794165 6.236803 -0.226109 -0.005034 -7.724286 1.258884 -0.000017 0.011753 0.011988
50.258155 106.755424 690.486749 27.276374 -8.065930 -0.280002 0.363641 5.295031 -0.069858 0.162238 2.353292 -0.035167 0.162238 2.353292 -0.035167 0.121797 1.764960 -0.026997 0.626921 12.785245 -0.571110 1.429374 -12.431130 -1.346408 -0.633483 3.755319 10.535813 12.988095 -7.646666 77.799233 1.248930 -7.622737 -2.209939 -2.418425 0.187632 1.309287 -4.206660 4.868964 -8.243141 2.406870 -9.325752 -76.978858 -2.609136 -0.882178 -3.663798 4.239693 -4.069646 -1.402663 2.324732 9.890276 1.547409 -3.256057 3.853864 -0.557583 -2.859187 -8.233813 -0.081661 0.000000 0.000000 0.000000 1.467426 9.605294 -0.210837 -2.912300 6.282308 -0.259392 0.084308 -7.747325 1.272173 0.000000 0.000000 0.000000
50.240384 106.751546 690.439673 27.275412 -8.064883 -0.256927 0.350740 5.260012 -0.079159 0.156614 2.337723 -0.039123 0.156614 2.337723 -0.039123 0.117594 1.753282 -0.029938 0.618800 12.811757 -0.567067 1.411775 -12.382115 -1.334867 -0.587819 3.823641 10.482414 12.928055 -7.735651 77.872513 1.225700 -7.603023 -2.209829 -2.465290 0.182944 1.282102 -4.146841 4.948764 -8.272990 2.344192 -9.253972 -76.905739 -2.625163 -0.877391 -3.656498 4.208031 -4.055143 -1.459020 2.368660 9.838853 1.527530 -3.408547 3.907222 -0.576194 -2.792721 -8.252162 -0.043215 0.000000 -0.000000 0.000000 1.510056 9.555865 -0.222683 -3.040348 6.332531 -0.290086 0.164152 -7.769811 1.288430 -0.000000 -0.000000 0.000000
50.221946 106.748619 690.394601 27.271891 -8.065349 -0.238159 0.340484 5.227295 -0.087453 0.152150 2.323178 -0.042665 0.152150 2.323178 -0.042665 0.114259 1.742373 -0.032573 0.610457 12.838087 -0.560705 1.392806 -12.333482 -1.318838 -0.544903 3.891548 10.432788 12.859617 -7.822488 77.939024 1.203126 -7.578363 -2.202693 -2.510450 0.176864 1.257588 -4.092741 5.027214 -8.299327 2.280274 -9.189884 -76.838415 -2.639522 -0.879584 -3.648776 4.181127 -4.040236 -1.514918 2.410348 9.789687 1.510614 -3.551061 3.959428 -0.591231 -2.727449 -8.266469 -0.004251 0.000000 0.000000 0.000000 1.560456 9.508238 -0.229685 -3.163650 6.383525 -0.316644 0.235190 -7.788217 1.303663 -0.000000 0.000000 -0.000000
50.204370 106.746315 690.353620 27.265927 -8.071895 -0.219381 0.331341 5.196687 -0.095609 0.148178 2.309570 -0.046162 0.148178 2.309570 -0.046162 0.111293 1.732167 -0.035177 0.602105 12.865237 -0.556666 1.374779 -12.283280 -1.307221 -0.501049 3.959026 10.382485 12.800343 -7.904763 78.004396 1.175465 -7.554724 -2.200933 -2.555839 0.174567 1.236037 -4.039093 5.104837 -8.326868 2.223637 -9.129686 -76.771483 -2.655395 -0.872054 -3.643002 4.151094 -4.028477 -1.564434 2.459885 9.752472 1.495192 -3.694467 4.001851 -0.605487 -2.663057 -8.273934 0.042076 0.000000 -0.000000 0.000000 1.601195 9.470455 -0.238146 -3.265969 6.430650 -0.340560 0.299490 -7.801336 1.313714 0.000000 0.000000 0.000000
